<svg xmlns="http://www.w3.org/2000/svg" version="1.1" xmlns:xlink="http://www.w3.org/1999/xlink" xmlns:svgjs="http://svgjs.dev/svgjs" width="719" height="264" preserveAspectRatio="none" viewBox="0 0 719 264"><g mask="url(&quot;#SvgjsMask1254&quot;)" fill="none"><rect width="719" height="264" x="0" y="0" fill="url(&quot;#SvgjsLinearGradient1255&quot;)"></rect><path d="M-27.99 217.4L-27.99 217.4" stroke="#132e65" stroke-width="1.5"></path><path d="M-27.99 217.4L60.52 218.39" stroke="#132e65" stroke-width="1.5"></path><path d="M-27.99 217.4L38.67 297.41" stroke="#132e65" stroke-width="1.5"></path><path d="M-27.99 217.4L-67.3 327.09" stroke="#132e65" stroke-width="1.5"></path><path d="M-27.99 217.4L122.58 203.36" stroke="#132e65" stroke-width="1.5"></path><path d="M-27.99 217.4L113.78 317.52" stroke="#132e65" stroke-width="1.5"></path><path d="M-67.3 327.09L-67.3 327.09" stroke="#132e65" stroke-width="1.5"></path><path d="M-67.3 327.09L38.67 297.41" stroke="#132e65" stroke-width="1.5"></path><path d="M-67.3 327.09L60.52 218.39" stroke="#132e65" stroke-width="1.5"></path><path d="M-67.3 327.09L113.78 317.52" stroke="#132e65" stroke-width="1.5"></path><path d="M60.52 218.39L60.52 218.39" stroke="#132e65" stroke-width="1.5"></path><path d="M60.52 218.39L122.58 203.36" stroke="#132e65" stroke-width="1.5"></path><path d="M60.52 218.39L38.67 297.41" stroke="#132e65" stroke-width="1.5"></path><path d="M60.52 218.39L113.78 317.52" stroke="#132e65" stroke-width="1.5"></path><path d="M60.52 218.39L206.73 151.99" stroke="#132e65" stroke-width="1.5"></path><path d="M38.67 297.41L38.67 297.41" stroke="#132e65" stroke-width="1.5"></path><path d="M38.67 297.41L113.78 317.52" stroke="#132e65" stroke-width="1.5"></path><path d="M38.67 297.41L122.58 203.36" stroke="#132e65" stroke-width="1.5"></path><path d="M122.58 203.36L122.58 203.36" stroke="#132e65" stroke-width="1.5"></path><path d="M122.58 203.36L206.73 151.99" stroke="#132e65" stroke-width="1.5"></path><path d="M122.58 203.36L113.78 317.52" stroke="#132e65" stroke-width="1.5"></path><path d="M122.58 203.36L241.79 235.05" stroke="#132e65" stroke-width="1.5"></path><path d="M113.78 317.52L113.78 317.52" stroke="#132e65" stroke-width="1.5"></path><path d="M113.78 317.52L216.63 299.57" stroke="#132e65" stroke-width="1.5"></path><path d="M206.73 151.99L206.73 151.99" stroke="#132e65" stroke-width="1.5"></path><path d="M206.73 151.99L241.79 235.05" stroke="#132e65" stroke-width="1.5"></path><path d="M206.73 151.99L315.57 220.15" stroke="#132e65" stroke-width="1.5"></path><path d="M206.73 151.99L334.72 124.04" stroke="#132e65" stroke-width="1.5"></path><path d="M206.73 151.99L216.63 299.57" stroke="#132e65" stroke-width="1.5"></path><path d="M241.79 235.05L241.79 235.05" stroke="#132e65" stroke-width="1.5"></path><path d="M241.79 235.05L216.63 299.57" stroke="#132e65" stroke-width="1.5"></path><path d="M241.79 235.05L315.57 220.15" stroke="#132e65" stroke-width="1.5"></path><path d="M216.63 299.57L216.63 299.57" stroke="#132e65" stroke-width="1.5"></path><path d="M334.72 124.04L334.72 124.04" stroke="#132e65" stroke-width="1.5"></path><path d="M334.72 124.04L408.29 140.02" stroke="#132e65" stroke-width="1.5"></path><path d="M334.72 124.04L315.57 220.15" stroke="#132e65" stroke-width="1.5"></path><path d="M334.72 124.04L241.79 235.05" stroke="#132e65" stroke-width="1.5"></path><path d="M334.72 124.04L492.67 112.75" stroke="#132e65" stroke-width="1.5"></path><path d="M315.57 220.15L315.57 220.15" stroke="#132e65" stroke-width="1.5"></path><path d="M315.57 220.15L321.03 305.49" stroke="#132e65" stroke-width="1.5"></path><path d="M321.03 305.49L321.03 305.49" stroke="#132e65" stroke-width="1.5"></path><path d="M321.03 305.49L423.6 318.14" stroke="#132e65" stroke-width="1.5"></path><path d="M321.03 305.49L216.63 299.57" stroke="#132e65" stroke-width="1.5"></path><path d="M321.03 305.49L241.79 235.05" stroke="#132e65" stroke-width="1.5"></path><path d="M321.03 305.49L334.72 124.04" stroke="#132e65" stroke-width="1.5"></path><path d="M321.03 305.49L408.29 140.02" stroke="#132e65" stroke-width="1.5"></path><path d="M408.29 140.02L408.29 140.02" stroke="#132e65" stroke-width="1.5"></path><path d="M408.29 140.02L492.67 112.75" stroke="#132e65" stroke-width="1.5"></path><path d="M408.29 140.02L491.65 222.64" stroke="#132e65" stroke-width="1.5"></path><path d="M408.29 140.02L315.57 220.15" stroke="#132e65" stroke-width="1.5"></path><path d="M408.29 140.02L502.09 46.05" stroke="#132e65" stroke-width="1.5"></path><path d="M423.6 318.14L423.6 318.14" stroke="#132e65" stroke-width="1.5"></path><path d="M423.6 318.14L516.18 309.98" stroke="#132e65" stroke-width="1.5"></path><path d="M423.6 318.14L491.65 222.64" stroke="#132e65" stroke-width="1.5"></path><path d="M423.6 318.14L567.16 330.72" stroke="#132e65" stroke-width="1.5"></path><path d="M423.6 318.14L315.57 220.15" stroke="#132e65" stroke-width="1.5"></path><path d="M423.6 318.14L408.29 140.02" stroke="#132e65" stroke-width="1.5"></path><path d="M491.82 -34.86L491.82 -34.86" stroke="#132e65" stroke-width="1.5"></path><path d="M491.82 -34.86L502.09 46.05" stroke="#132e65" stroke-width="1.5"></path><path d="M491.82 -34.86L574.86 32.18" stroke="#132e65" stroke-width="1.5"></path><path d="M491.82 -34.86L492.67 112.75" stroke="#132e65" stroke-width="1.5"></path><path d="M502.09 46.05L502.09 46.05" stroke="#132e65" stroke-width="1.5"></path><path d="M502.09 46.05L492.67 112.75" stroke="#132e65" stroke-width="1.5"></path><path d="M502.09 46.05L574.86 32.18" stroke="#132e65" stroke-width="1.5"></path><path d="M502.09 46.05L580.98 123.17" stroke="#132e65" stroke-width="1.5"></path><path d="M492.67 112.75L492.67 112.75" stroke="#132e65" stroke-width="1.5"></path><path d="M492.67 112.75L580.98 123.17" stroke="#132e65" stroke-width="1.5"></path><path d="M492.67 112.75L491.65 222.64" stroke="#132e65" stroke-width="1.5"></path><path d="M492.67 112.75L574.86 32.18" stroke="#132e65" stroke-width="1.5"></path><path d="M491.65 222.64L491.65 222.64" stroke="#132e65" stroke-width="1.5"></path><path d="M491.65 222.64L516.18 309.98" stroke="#132e65" stroke-width="1.5"></path><path d="M491.65 222.64L583.38 225.65" stroke="#132e65" stroke-width="1.5"></path><path d="M491.65 222.64L567.16 330.72" stroke="#132e65" stroke-width="1.5"></path><path d="M516.18 309.98L516.18 309.98" stroke="#132e65" stroke-width="1.5"></path><path d="M516.18 309.98L567.16 330.72" stroke="#132e65" stroke-width="1.5"></path><path d="M516.18 309.98L583.38 225.65" stroke="#132e65" stroke-width="1.5"></path><path d="M516.18 309.98L687 319.45" stroke="#132e65" stroke-width="1.5"></path><path d="M574.86 32.18L574.86 32.18" stroke="#132e65" stroke-width="1.5"></path><path d="M574.86 32.18L580.98 123.17" stroke="#132e65" stroke-width="1.5"></path><path d="M580.98 123.17L580.98 123.17" stroke="#132e65" stroke-width="1.5"></path><path d="M580.98 123.17L665.8 129.83" stroke="#132e65" stroke-width="1.5"></path><path d="M583.38 225.65L583.38 225.65" stroke="#132e65" stroke-width="1.5"></path><path d="M583.38 225.65L580.98 123.17" stroke="#132e65" stroke-width="1.5"></path><path d="M583.38 225.65L567.16 330.72" stroke="#132e65" stroke-width="1.5"></path><path d="M567.16 330.72L567.16 330.72" stroke="#132e65" stroke-width="1.5"></path><path d="M685.86 -26.47L685.86 -26.47" stroke="#132e65" stroke-width="1.5"></path><path d="M685.86 -26.47L682.9 42.21" stroke="#132e65" stroke-width="1.5"></path><path d="M685.86 -26.47L748 -60.52" stroke="#132e65" stroke-width="1.5"></path><path d="M685.86 -26.47L744.09 64.36" stroke="#132e65" stroke-width="1.5"></path><path d="M685.86 -26.47L574.86 32.18" stroke="#132e65" stroke-width="1.5"></path><path d="M685.86 -26.47L665.8 129.83" stroke="#132e65" stroke-width="1.5"></path><path d="M685.86 -26.47L580.98 123.17" stroke="#132e65" stroke-width="1.5"></path><path d="M682.9 42.21L682.9 42.21" stroke="#132e65" stroke-width="1.5"></path><path d="M682.9 42.21L744.09 64.36" stroke="#132e65" stroke-width="1.5"></path><path d="M682.9 42.21L665.8 129.83" stroke="#132e65" stroke-width="1.5"></path><path d="M682.9 42.21L574.86 32.18" stroke="#132e65" stroke-width="1.5"></path><path d="M665.8 129.83L665.8 129.83" stroke="#132e65" stroke-width="1.5"></path><path d="M665.8 129.83L694.25 215.52" stroke="#132e65" stroke-width="1.5"></path><path d="M694.25 215.52L694.25 215.52" stroke="#132e65" stroke-width="1.5"></path><path d="M694.25 215.52L745.88 299.25" stroke="#132e65" stroke-width="1.5"></path><path d="M694.25 215.52L687 319.45" stroke="#132e65" stroke-width="1.5"></path><path d="M694.25 215.52L583.38 225.65" stroke="#132e65" stroke-width="1.5"></path><path d="M694.25 215.52L784.66 141.03" stroke="#132e65" stroke-width="1.5"></path><path d="M694.25 215.52L580.98 123.17" stroke="#132e65" stroke-width="1.5"></path><path d="M687 319.45L687 319.45" stroke="#132e65" stroke-width="1.5"></path><path d="M687 319.45L745.88 299.25" stroke="#132e65" stroke-width="1.5"></path><path d="M748 -60.52L748 -60.52" stroke="#132e65" stroke-width="1.5"></path><path d="M748 -60.52L682.9 42.21" stroke="#132e65" stroke-width="1.5"></path><path d="M748 -60.52L744.09 64.36" stroke="#132e65" stroke-width="1.5"></path><path d="M748 -60.52L574.86 32.18" stroke="#132e65" stroke-width="1.5"></path><path d="M748 -60.52L784.66 141.03" stroke="#132e65" stroke-width="1.5"></path><path d="M744.09 64.36L744.09 64.36" stroke="#132e65" stroke-width="1.5"></path><path d="M744.09 64.36L784.66 141.03" stroke="#132e65" stroke-width="1.5"></path><path d="M784.66 141.03L784.66 141.03" stroke="#132e65" stroke-width="1.5"></path><path d="M784.66 141.03L665.8 129.83" stroke="#132e65" stroke-width="1.5"></path><path d="M784.66 141.03L682.9 42.21" stroke="#132e65" stroke-width="1.5"></path><path d="M784.66 141.03L745.88 299.25" stroke="#132e65" stroke-width="1.5"></path><path d="M745.88 299.25L745.88 299.25" stroke="#132e65" stroke-width="1.5"></path><path d="M745.88 299.25L583.38 225.65" stroke="#132e65" stroke-width="1.5"></path><circle r="5" cx="-27.99" cy="217.4" fill="#132e65"></circle><circle r="5" cx="-67.3" cy="327.09" fill="#132e65"></circle><circle r="5" cx="60.52" cy="218.39" fill="#132e65"></circle><circle r="5" cx="38.67" cy="297.41" fill="#132e65"></circle><circle r="5" cx="122.58" cy="203.36" fill="#132e65"></circle><circle r="5" cx="113.78" cy="317.52" fill="#132e65"></circle><circle r="5" cx="206.73" cy="151.99" fill="#132e65"></circle><circle r="5" cx="241.79" cy="235.05" fill="#132e65"></circle><circle r="5" cx="216.63" cy="299.57" fill="#132e65"></circle><circle r="5" cx="334.72" cy="124.04" fill="#132e65"></circle><circle r="5" cx="315.57" cy="220.15" fill="#132e65"></circle><circle r="5" cx="321.03" cy="305.49" fill="#132e65"></circle><circle r="5" cx="408.29" cy="140.02" fill="#132e65"></circle><circle r="5" cx="423.6" cy="318.14" fill="#132e65"></circle><circle r="5" cx="491.82" cy="-34.86" fill="#132e65"></circle><circle r="5" cx="502.09" cy="46.05" fill="#132e65"></circle><circle r="5" cx="492.67" cy="112.75" fill="#132e65"></circle><circle r="5" cx="491.65" cy="222.64" fill="#132e65"></circle><circle r="5" cx="516.18" cy="309.98" fill="#132e65"></circle><circle r="5" cx="574.86" cy="32.18" fill="#132e65"></circle><circle r="5" cx="580.98" cy="123.17" fill="#132e65"></circle><circle r="5" cx="583.38" cy="225.65" fill="#132e65"></circle><circle r="5" cx="567.16" cy="330.72" fill="#132e65"></circle><circle r="5" cx="685.86" cy="-26.47" fill="#132e65"></circle><circle r="5" cx="682.9" cy="42.21" fill="#132e65"></circle><circle r="5" cx="665.8" cy="129.83" fill="#132e65"></circle><circle r="5" cx="694.25" cy="215.52" fill="#132e65"></circle><circle r="5" cx="687" cy="319.45" fill="#132e65"></circle><circle r="5" cx="748" cy="-60.52" fill="#132e65"></circle><circle r="5" cx="744.09" cy="64.36" fill="#132e65"></circle><circle r="5" cx="784.66" cy="141.03" fill="#132e65"></circle><circle r="5" cx="745.88" cy="299.25" fill="#132e65"></circle><path d="M23.35 225.65L23.35 225.65" stroke="hsl(228.5, 77.2%, 51.5%)" stroke-width="1.5"></path><path d="M23.35 225.65L48.29 295.84" stroke="hsl(228.5, 77.2%, 51.5%)" stroke-width="1.5"></path><path d="M23.35 225.65L-59.48 230.95" stroke="hsl(228.5, 77.2%, 51.5%)" stroke-width="1.5"></path><path d="M387.75 324.75L387.75 324.75" stroke="hsl(228.5, 77.2%, 51.5%)" stroke-width="1.5"></path><path d="M387.75 324.75L325.62 301.31" stroke="hsl(228.5, 77.2%, 51.5%)" stroke-width="1.5"></path><path d="M387.75 324.75L477.86 328.94" stroke="hsl(228.5, 77.2%, 51.5%)" stroke-width="1.5"></path><path d="M387.75 324.75L405.62 228.88" stroke="hsl(228.5, 77.2%, 51.5%)" stroke-width="1.5"></path><path d="M387.75 324.75L334.5 203.49" stroke="hsl(228.5, 77.2%, 51.5%)" stroke-width="1.5"></path><path d="M387.75 324.75L239.19 293.8" stroke="hsl(228.5, 77.2%, 51.5%)" stroke-width="1.5"></path><path d="M597.14 112.6L597.14 112.6" stroke="hsl(228.5, 77.2%, 51.5%)" stroke-width="1.5"></path><path d="M597.14 112.6L589.86 23.14" stroke="hsl(228.5, 77.2%, 51.5%)" stroke-width="1.5"></path><path d="M597.14 112.6L686.85 136.91" stroke="hsl(228.5, 77.2%, 51.5%)" stroke-width="1.5"></path><path d="M686.85 136.91L686.85 136.91" stroke="hsl(228.5, 77.2%, 51.5%)" stroke-width="1.5"></path><path d="M686.85 136.91L755.44 135.16" stroke="hsl(228.5, 77.2%, 51.5%)" stroke-width="1.5"></path><path d="M686.85 136.91L681.07 66.08" stroke="hsl(228.5, 77.2%, 51.5%)" stroke-width="1.5"></path><path d="M746.66 42.89L746.66 42.89" stroke="hsl(228.5, 77.2%, 51.5%)" stroke-width="1.5"></path><path d="M746.66 42.89L681.07 66.08" stroke="hsl(228.5, 77.2%, 51.5%)" stroke-width="1.5"></path><path d="M746.66 42.89L755.44 135.16" stroke="hsl(228.5, 77.2%, 51.5%)" stroke-width="1.5"></path><path d="M746.66 42.89L776.67 -59.77" stroke="hsl(228.5, 77.2%, 51.5%)" stroke-width="1.5"></path><path d="M746.66 42.89L686.85 136.91" stroke="hsl(228.5, 77.2%, 51.5%)" stroke-width="1.5"></path><path d="M746.66 42.89L655.07 -52.38" stroke="hsl(228.5, 77.2%, 51.5%)" stroke-width="1.5"></path><path d="M746.66 42.89L589.86 23.14" stroke="hsl(228.5, 77.2%, 51.5%)" stroke-width="1.5"></path><path d="M776.66 222.37L776.66 222.37" stroke="hsl(228.5, 77.2%, 51.5%)" stroke-width="1.5"></path><path d="M776.66 222.37L758.3 309.24" stroke="hsl(228.5, 77.2%, 51.5%)" stroke-width="1.5"></path><path d="M776.66 222.37L755.44 135.16" stroke="hsl(228.5, 77.2%, 51.5%)" stroke-width="1.5"></path><path d="M776.66 222.37L673.81 235.96" stroke="hsl(228.5, 77.2%, 51.5%)" stroke-width="1.5"></path><path d="M776.66 222.37L686.85 136.91" stroke="hsl(228.5, 77.2%, 51.5%)" stroke-width="1.5"></path><path d="M-59.48 230.95L-59.48 230.95" stroke="hsl(228.5, 77.2%, 51.5%)" stroke-width="1.5"></path><path d="M-59.48 230.95L-24.87 295.39" stroke="hsl(228.5, 77.2%, 51.5%)" stroke-width="1.5"></path><path d="M-59.48 230.95L48.29 295.84" stroke="hsl(228.5, 77.2%, 51.5%)" stroke-width="1.5"></path><path d="M-59.48 230.95L134.03 214.66" stroke="hsl(228.5, 77.2%, 51.5%)" stroke-width="1.5"></path><path d="M-59.48 230.95L123.82 336.26" stroke="hsl(228.5, 77.2%, 51.5%)" stroke-width="1.5"></path><path d="M-59.48 230.95L215.01 210.78" stroke="hsl(228.5, 77.2%, 51.5%)" stroke-width="1.5"></path><path d="M-24.87 295.39L-24.87 295.39" stroke="hsl(228.5, 77.2%, 51.5%)" stroke-width="1.5"></path><path d="M48.29 295.84L48.29 295.84" stroke="hsl(228.5, 77.2%, 51.5%)" stroke-width="1.5"></path><path d="M48.29 295.84L-24.87 295.39" stroke="hsl(228.5, 77.2%, 51.5%)" stroke-width="1.5"></path><path d="M48.29 295.84L123.82 336.26" stroke="hsl(228.5, 77.2%, 51.5%)" stroke-width="1.5"></path><path d="M48.29 295.84L134.03 214.66" stroke="hsl(228.5, 77.2%, 51.5%)" stroke-width="1.5"></path><path d="M48.29 295.84L215.01 210.78" stroke="hsl(228.5, 77.2%, 51.5%)" stroke-width="1.5"></path><path d="M134.03 214.66L134.03 214.66" stroke="hsl(228.5, 77.2%, 51.5%)" stroke-width="1.5"></path><path d="M134.03 214.66L215.01 210.78" stroke="hsl(228.5, 77.2%, 51.5%)" stroke-width="1.5"></path><path d="M134.03 214.66L23.35 225.65" stroke="hsl(228.5, 77.2%, 51.5%)" stroke-width="1.5"></path><path d="M123.82 336.26L123.82 336.26" stroke="hsl(228.5, 77.2%, 51.5%)" stroke-width="1.5"></path><path d="M123.82 336.26L134.03 214.66" stroke="hsl(228.5, 77.2%, 51.5%)" stroke-width="1.5"></path><path d="M123.82 336.26L239.19 293.8" stroke="hsl(228.5, 77.2%, 51.5%)" stroke-width="1.5"></path><path d="M123.82 336.26L23.35 225.65" stroke="hsl(228.5, 77.2%, 51.5%)" stroke-width="1.5"></path><path d="M123.82 336.26L-24.87 295.39" stroke="hsl(228.5, 77.2%, 51.5%)" stroke-width="1.5"></path><path d="M215.01 210.78L215.01 210.78" stroke="hsl(228.5, 77.2%, 51.5%)" stroke-width="1.5"></path><path d="M215.01 210.78L239.19 293.8" stroke="hsl(228.5, 77.2%, 51.5%)" stroke-width="1.5"></path><path d="M215.01 210.78L334.5 203.49" stroke="hsl(228.5, 77.2%, 51.5%)" stroke-width="1.5"></path><path d="M215.01 210.78L325.62 301.31" stroke="hsl(228.5, 77.2%, 51.5%)" stroke-width="1.5"></path><path d="M215.01 210.78L123.82 336.26" stroke="hsl(228.5, 77.2%, 51.5%)" stroke-width="1.5"></path><path d="M239.19 293.8L239.19 293.8" stroke="hsl(228.5, 77.2%, 51.5%)" stroke-width="1.5"></path><path d="M239.19 293.8L325.62 301.31" stroke="hsl(228.5, 77.2%, 51.5%)" stroke-width="1.5"></path><path d="M334.5 203.49L334.5 203.49" stroke="hsl(228.5, 77.2%, 51.5%)" stroke-width="1.5"></path><path d="M334.5 203.49L405.62 228.88" stroke="hsl(228.5, 77.2%, 51.5%)" stroke-width="1.5"></path><path d="M334.5 203.49L325.62 301.31" stroke="hsl(228.5, 77.2%, 51.5%)" stroke-width="1.5"></path><path d="M325.62 301.31L325.62 301.31" stroke="hsl(228.5, 77.2%, 51.5%)" stroke-width="1.5"></path><path d="M325.62 301.31L405.62 228.88" stroke="hsl(228.5, 77.2%, 51.5%)" stroke-width="1.5"></path><path d="M405.62 228.88L405.62 228.88" stroke="hsl(228.5, 77.2%, 51.5%)" stroke-width="1.5"></path><path d="M405.62 228.88L484.2 205.27" stroke="hsl(228.5, 77.2%, 51.5%)" stroke-width="1.5"></path><path d="M498.61 135.32L498.61 135.32" stroke="hsl(228.5, 77.2%, 51.5%)" stroke-width="1.5"></path><path d="M498.61 135.32L484.2 205.27" stroke="hsl(228.5, 77.2%, 51.5%)" stroke-width="1.5"></path><path d="M498.61 135.32L597.14 112.6" stroke="hsl(228.5, 77.2%, 51.5%)" stroke-width="1.5"></path><path d="M498.61 135.32L405.62 228.88" stroke="hsl(228.5, 77.2%, 51.5%)" stroke-width="1.5"></path><path d="M498.61 135.32L575.12 244.39" stroke="hsl(228.5, 77.2%, 51.5%)" stroke-width="1.5"></path><path d="M498.61 135.32L589.86 23.14" stroke="hsl(228.5, 77.2%, 51.5%)" stroke-width="1.5"></path><path d="M484.2 205.27L484.2 205.27" stroke="hsl(228.5, 77.2%, 51.5%)" stroke-width="1.5"></path><path d="M477.86 328.94L477.86 328.94" stroke="hsl(228.5, 77.2%, 51.5%)" stroke-width="1.5"></path><path d="M477.86 328.94L596.49 331.85" stroke="hsl(228.5, 77.2%, 51.5%)" stroke-width="1.5"></path><path d="M477.86 328.94L405.62 228.88" stroke="hsl(228.5, 77.2%, 51.5%)" stroke-width="1.5"></path><path d="M477.86 328.94L484.2 205.27" stroke="hsl(228.5, 77.2%, 51.5%)" stroke-width="1.5"></path><path d="M585.26 -31.15L585.26 -31.15" stroke="hsl(228.5, 77.2%, 51.5%)" stroke-width="1.5"></path><path d="M585.26 -31.15L589.86 23.14" stroke="hsl(228.5, 77.2%, 51.5%)" stroke-width="1.5"></path><path d="M585.26 -31.15L655.07 -52.38" stroke="hsl(228.5, 77.2%, 51.5%)" stroke-width="1.5"></path><path d="M585.26 -31.15L681.07 66.08" stroke="hsl(228.5, 77.2%, 51.5%)" stroke-width="1.5"></path><path d="M585.26 -31.15L597.14 112.6" stroke="hsl(228.5, 77.2%, 51.5%)" stroke-width="1.5"></path><path d="M585.26 -31.15L746.66 42.89" stroke="hsl(228.5, 77.2%, 51.5%)" stroke-width="1.5"></path><path d="M589.86 23.14L589.86 23.14" stroke="hsl(228.5, 77.2%, 51.5%)" stroke-width="1.5"></path><path d="M589.86 23.14L655.07 -52.38" stroke="hsl(228.5, 77.2%, 51.5%)" stroke-width="1.5"></path><path d="M575.12 244.39L575.12 244.39" stroke="hsl(228.5, 77.2%, 51.5%)" stroke-width="1.5"></path><path d="M575.12 244.39L596.49 331.85" stroke="hsl(228.5, 77.2%, 51.5%)" stroke-width="1.5"></path><path d="M596.49 331.85L596.49 331.85" stroke="hsl(228.5, 77.2%, 51.5%)" stroke-width="1.5"></path><path d="M596.49 331.85L651.75 296.47" stroke="hsl(228.5, 77.2%, 51.5%)" stroke-width="1.5"></path><path d="M596.49 331.85L673.81 235.96" stroke="hsl(228.5, 77.2%, 51.5%)" stroke-width="1.5"></path><path d="M655.07 -52.38L655.07 -52.38" stroke="hsl(228.5, 77.2%, 51.5%)" stroke-width="1.5"></path><path d="M655.07 -52.38L681.07 66.08" stroke="hsl(228.5, 77.2%, 51.5%)" stroke-width="1.5"></path><path d="M655.07 -52.38L776.67 -59.77" stroke="hsl(228.5, 77.2%, 51.5%)" stroke-width="1.5"></path><path d="M655.07 -52.38L597.14 112.6" stroke="hsl(228.5, 77.2%, 51.5%)" stroke-width="1.5"></path><path d="M681.07 66.08L681.07 66.08" stroke="hsl(228.5, 77.2%, 51.5%)" stroke-width="1.5"></path><path d="M681.07 66.08L597.14 112.6" stroke="hsl(228.5, 77.2%, 51.5%)" stroke-width="1.5"></path><path d="M673.81 235.96L673.81 235.96" stroke="hsl(228.5, 77.2%, 51.5%)" stroke-width="1.5"></path><path d="M673.81 235.96L651.75 296.47" stroke="hsl(228.5, 77.2%, 51.5%)" stroke-width="1.5"></path><path d="M673.81 235.96L575.12 244.39" stroke="hsl(228.5, 77.2%, 51.5%)" stroke-width="1.5"></path><path d="M673.81 235.96L686.85 136.91" stroke="hsl(228.5, 77.2%, 51.5%)" stroke-width="1.5"></path><path d="M651.75 296.47L651.75 296.47" stroke="hsl(228.5, 77.2%, 51.5%)" stroke-width="1.5"></path><path d="M651.75 296.47L575.12 244.39" stroke="hsl(228.5, 77.2%, 51.5%)" stroke-width="1.5"></path><path d="M651.75 296.47L758.3 309.24" stroke="hsl(228.5, 77.2%, 51.5%)" stroke-width="1.5"></path><path d="M651.75 296.47L776.66 222.37" stroke="hsl(228.5, 77.2%, 51.5%)" stroke-width="1.5"></path><path d="M776.67 -59.77L776.67 -59.77" stroke="hsl(228.5, 77.2%, 51.5%)" stroke-width="1.5"></path><path d="M776.67 -59.77L681.07 66.08" stroke="hsl(228.5, 77.2%, 51.5%)" stroke-width="1.5"></path><path d="M776.67 -59.77L585.26 -31.15" stroke="hsl(228.5, 77.2%, 51.5%)" stroke-width="1.5"></path><path d="M776.67 -59.77L755.44 135.16" stroke="hsl(228.5, 77.2%, 51.5%)" stroke-width="1.5"></path><path d="M755.44 135.16L755.44 135.16" stroke="hsl(228.5, 77.2%, 51.5%)" stroke-width="1.5"></path><path d="M758.3 309.24L758.3 309.24" stroke="hsl(228.5, 77.2%, 51.5%)" stroke-width="1.5"></path><path d="M758.3 309.24L673.81 235.96" stroke="hsl(228.5, 77.2%, 51.5%)" stroke-width="1.5"></path><path d="M758.3 309.24L596.49 331.85" stroke="hsl(228.5, 77.2%, 51.5%)" stroke-width="1.5"></path><path d="M758.3 309.24L755.44 135.16" stroke="hsl(228.5, 77.2%, 51.5%)" stroke-width="1.5"></path><circle r="25" cx="23.35" cy="225.65" fill="url(&quot;#SvgjsRadialGradient1256&quot;)"></circle><circle r="25" cx="387.75" cy="324.75" fill="url(&quot;#SvgjsRadialGradient1256&quot;)"></circle><circle r="25" cx="597.14" cy="112.6" fill="url(&quot;#SvgjsRadialGradient1256&quot;)"></circle><circle r="25" cx="686.85" cy="136.91" fill="url(&quot;#SvgjsRadialGradient1256&quot;)"></circle><circle r="25" cx="746.66" cy="42.89" fill="url(&quot;#SvgjsRadialGradient1256&quot;)"></circle><circle r="25" cx="776.66" cy="222.37" fill="url(&quot;#SvgjsRadialGradient1256&quot;)"></circle><circle r="5" cx="-59.48" cy="230.95" fill="#8b9ad9"></circle><circle r="5" cx="-24.87" cy="295.39" fill="#8b9ad9"></circle><circle r="5" cx="48.29" cy="295.84" fill="#8b9ad9"></circle><circle r="5" cx="134.03" cy="214.66" fill="#8b9ad9"></circle><circle r="5" cx="123.82" cy="336.26" fill="#8b9ad9"></circle><circle r="5" cx="215.01" cy="210.78" fill="#8b9ad9"></circle><circle r="5" cx="239.19" cy="293.8" fill="#8b9ad9"></circle><circle r="5" cx="334.5" cy="203.49" fill="#8b9ad9"></circle><circle r="5" cx="325.62" cy="301.31" fill="#8b9ad9"></circle><circle r="5" cx="405.62" cy="228.88" fill="#8b9ad9"></circle><circle r="5" cx="498.61" cy="135.32" fill="#8b9ad9"></circle><circle r="5" cx="484.2" cy="205.27" fill="#8b9ad9"></circle><circle r="5" cx="477.86" cy="328.94" fill="#8b9ad9"></circle><circle r="5" cx="585.26" cy="-31.15" fill="#8b9ad9"></circle><circle r="5" cx="589.86" cy="23.14" fill="#8b9ad9"></circle><circle r="5" cx="575.12" cy="244.39" fill="#8b9ad9"></circle><circle r="5" cx="596.49" cy="331.85" fill="#8b9ad9"></circle><circle r="5" cx="655.07" cy="-52.38" fill="#8b9ad9"></circle><circle r="5" cx="681.07" cy="66.08" fill="#8b9ad9"></circle><circle r="5" cx="673.81" cy="235.96" fill="#8b9ad9"></circle><circle r="5" cx="651.75" cy="296.47" fill="#8b9ad9"></circle><circle r="5" cx="776.67" cy="-59.77" fill="#8b9ad9"></circle><circle r="5" cx="755.44" cy="135.16" fill="#8b9ad9"></circle><circle r="5" cx="758.3" cy="309.24" fill="#8b9ad9"></circle></g><defs><mask id="SvgjsMask1254"><rect width="719" height="264" fill="#ffffff"></rect></mask><linearGradient x1="84.18%" y1="143.09%" x2="15.82%" y2="-43.09%" gradientUnits="userSpaceOnUse" id="SvgjsLinearGradient1255"><stop stop-color="#0e2a47" offset="0"></stop><stop stop-color="rgba(16, 49, 91, 1)" offset="1"></stop></linearGradient><radialGradient id="SvgjsRadialGradient1256"><stop stop-color="#ffffff" offset="0.1"></stop><stop stop-color="#1735b3" offset="0.2"></stop><stop stop-color="rgba(23, 53, 179, 0)" offset="1"></stop></radialGradient></defs></svg>