<svg xmlns="http://www.w3.org/2000/svg" version="1.1" xmlns:xlink="http://www.w3.org/1999/xlink" xmlns:svgjs="http://svgjs.dev/svgjs" width="471" height="491" preserveAspectRatio="none" viewBox="0 0 471 491"><g mask="url(&quot;#SvgjsMask3086&quot;)" fill="none"><rect width="471" height="491" x="0" y="0" fill="#0e2a47"></rect><use xlink:href="#SvgjsG3090" transform="translate(0, 0)" fill="rgba(255, 255, 255, 1)"></use><use xlink:href="#SvgjsG3090" transform="translate(470.99999999999994, 0)" fill="#0f457b"></use></g><defs><mask id="SvgjsMask3086"><rect width="471" height="491" fill="#ffffff"></rect></mask><g id="SvgjsG3088"><path d="M7.713 15.485C3.459 15.485 0 12.025 0 7.768 0 3.513 3.459 0.051 7.713 0.051S15.432 3.513 15.432 7.768c0 4.257-3.465 7.716-7.719 7.717z m0-1.91c3.201 0 5.81-2.604 5.81-5.809 0-3.199-2.61-5.807-5.81-5.807-3.202 0-5.804 2.609-5.804 5.807-0.001 3.206 2.602 5.809 5.804 5.809z"></path><path d="M7.753 8.787a0.574 0.574 0 0 1-0.554-0.042 0.578 0.578 0 0 1-0.259-0.399L6.931 3.862a0.58 0.58 0 0 1 1.162 0v3.478l2.975-1.4a0.578 0.578 0 0 1 0.773 0.275c0.138 0.292 0.011 0.637-0.276 0.774l-3.81 1.798z"></path></g><g id="SvgjsG3087"><path d="M8.312 4.802l0 0.521c0.492-0.069 0.443-0.509 0-0.52z m-0.51-0.627V3.715c-0.365 0.064-0.358 0.454 0 0.46z"></path><path d="M8.055 2.506c-1.128 0-2.044 0.915-2.044 2.043 0 1.129 0.915 2.044 2.045 2.044 1.129 0 2.043-0.915 2.043-2.044 0-1.128-0.915-2.043-2.043-2.043z m0.251 3.336v0.364h-0.507v-0.37c-0.29-0.043-0.822-0.323-0.855-0.924h0.534c0.034 0.154 0.078 0.34 0.321 0.409l-0.001-0.605c-0.334-0.048-0.814-0.194-0.814-0.73 0-0.602 0.666-0.789 0.813-0.789v-0.364h0.502v0.364c0.338 0.02 0.83 0.302 0.83 0.84h-0.528c-0.014-0.16-0.137-0.317-0.296-0.327v0.554c0.403 0.041 0.877 0.195 0.877 0.738 0 0.473-0.475 0.818-0.877 0.84z m1.733 5.54c-1.129 0-2.044 0.915-2.043 2.044s0.915 2.043 2.043 2.043 2.043-0.915 2.043-2.043c0-1.129-0.915-2.044-2.043-2.044zM10.955 13.739v0.499h-0.636v0.701h-0.542V14.238h-0.68v-0.49h0.688l-0.894-1.576h0.593l0.551 0.972 0.597-0.972h0.547L10.293 13.739h0.662z m-7.36-4.673c-1.129 0-2.044 0.915-2.043 2.044S2.467 13.154 3.595 13.154s2.044-0.915 2.044-2.044-0.915-2.044-2.044-2.044z m0.065 1.654v0.486h-0.367v1.165H2.773v-1.162h-0.31v-0.484h0.31v-0.436c0-0.168 0.163-0.68 0.777-0.68 0.627 0 0.762 0.494 0.762 0.908h-0.511c0-0.265-0.037-0.404-0.246-0.404-0.226 0-0.262 0.155-0.262 0.4v0.206h0.366z m1.173 0.482c-0.421 0.052-0.516 0.276-0.517 0.554v0.616h-0.516V10.72h0.516v0.258c0.112-0.129 0.241-0.267 0.517-0.267v0.491z"></path><path d="M0 0.56v7.93h9.395c0.178 0.948 1.009 1.666 2.009 1.666s1.83-0.718 2.008-1.666H16V0.56H0z m11.195 7.221h0.464v0.441h-0.378c0.047 0.403-0.185 0.572-0.198 0.707h1.264v0.441H10.456v-0.441c0.215-0.144 0.327-0.508 0.258-0.703h-0.396v-0.448h0.318c-0.086-0.203-0.086-0.27-0.086-0.448s0.147-0.758 0.912-0.754c0.705 0.004 0.91 0.584 0.91 1l-0.537 0c-0.036-0.251-0.135-0.458-0.368-0.458-0.357 0-0.358 0.224-0.357 0.301s0.013 0.262 0.086 0.364z m3.297-0.798h-1.386c-0.366-0.551-0.992-0.914-1.703-0.914S10.067 6.432 9.701 6.982H1.508V2.068h12.984V6.982z"></path></g><g id="SvgjsG3089"><path d="M16 14.068H0V2h16v12.068z m-14.107-1.117h12.214L10.088 8.837l-0.761 0.766c-0.33 0.329-0.801 0.518-1.297 0.517l-0.008 0c-0.498-0.002-0.971-0.195-1.299-0.529l-0.773-0.783-4.057 4.144zM1.116 3.916v8.233L5.165 8.014 1.116 3.916zM10.874 8.045l4.01 4.104V4.008l-4.01 4.037zM1.896 3.117l5.622 5.691c0.122 0.124 0.307 0.195 0.508 0.195h0.003c0.198 0 0.388-0.07 0.506-0.189L14.196 3.116H1.896z"></path></g><g id="SvgjsG3090"><use xlink:href="#SvgjsG3087" transform="translate(0, 0) scale(1.9)" fill="#0f457b"></use><use xlink:href="#SvgjsG3087" transform="translate(0, 106.39999999999999) scale(1.9)" fill="#0f457b"></use><use xlink:href="#SvgjsG3088" transform="translate(0, 212.79999999999998) scale(1.9)" fill="#0f457b"></use><use xlink:href="#SvgjsG3088" transform="translate(0, 319.2) scale(1.9)" fill="#0f457b"></use><use xlink:href="#SvgjsG3087" transform="translate(0, 425.59999999999997) scale(1.9)" fill="#0f457b"></use><use xlink:href="#SvgjsG3087" transform="translate(106.39999999999999, 0) scale(1.9)" fill="rgba(255, 255, 255, 1)"></use><use xlink:href="#SvgjsG3088" transform="translate(106.39999999999999, 106.39999999999999) scale(1.9)" fill="rgba(255, 255, 255, 1)"></use><use xlink:href="#SvgjsG3088" transform="translate(106.39999999999999, 212.79999999999998) scale(1.9)" fill="rgba(255, 255, 255, 1)"></use><use xlink:href="#SvgjsG3087" transform="translate(106.39999999999999, 319.2) scale(1.9)" fill="rgba(255, 255, 255, 1)"></use><use xlink:href="#SvgjsG3089" transform="translate(106.39999999999999, 425.59999999999997) scale(1.9)" fill="#0f457b"></use><use xlink:href="#SvgjsG3089" transform="translate(212.79999999999998, 0) scale(1.9)" fill="rgba(159, 221, 154, 1)"></use><use xlink:href="#SvgjsG3088" transform="translate(212.79999999999998, 106.39999999999999) scale(1.9)" fill="rgba(159, 221, 154, 1)"></use><use xlink:href="#SvgjsG3087" transform="translate(212.79999999999998, 212.79999999999998) scale(1.9)" fill="#0f457b"></use><use xlink:href="#SvgjsG3087" transform="translate(212.79999999999998, 319.2) scale(1.9)" fill="#0f457b"></use><use xlink:href="#SvgjsG3089" transform="translate(212.79999999999998, 425.59999999999997) scale(1.9)" fill="rgba(159, 221, 154, 1)"></use><use xlink:href="#SvgjsG3089" transform="translate(319.2, 0) scale(1.9)" fill="rgba(159, 221, 154, 1)"></use><use xlink:href="#SvgjsG3087" transform="translate(319.2, 106.39999999999999) scale(1.9)" fill="rgba(159, 221, 154, 1)"></use><use xlink:href="#SvgjsG3088" transform="translate(319.2, 212.79999999999998) scale(1.9)" fill="rgba(159, 221, 154, 1)"></use><use xlink:href="#SvgjsG3087" transform="translate(319.2, 319.2) scale(1.9)" fill="rgba(255, 255, 255, 1)"></use><use xlink:href="#SvgjsG3089" transform="translate(319.2, 425.59999999999997) scale(1.9)" fill="rgba(159, 221, 154, 1)"></use><use xlink:href="#SvgjsG3087" transform="translate(425.59999999999997, 0) scale(1.9)" fill="#0f457b"></use><use xlink:href="#SvgjsG3089" transform="translate(425.59999999999997, 106.39999999999999) scale(1.9)" fill="rgba(159, 221, 154, 1)"></use><use xlink:href="#SvgjsG3088" transform="translate(425.59999999999997, 212.79999999999998) scale(1.9)" fill="#0f457b"></use><use xlink:href="#SvgjsG3087" transform="translate(425.59999999999997, 319.2) scale(1.9)" fill="rgba(159, 221, 154, 1)"></use><use xlink:href="#SvgjsG3088" transform="translate(425.59999999999997, 425.59999999999997) scale(1.9)" fill="rgba(159, 221, 154, 1)"></use></g></defs></svg>