<svg xmlns="http://www.w3.org/2000/svg" version="1.1" xmlns:xlink="http://www.w3.org/1999/xlink" xmlns:svgjs="http://svgjs.dev/svgjs" width="1000" height="500" preserveAspectRatio="none" viewBox="0 0 1000 500"><g mask="url(&quot;#SvgjsMask2114&quot;)" fill="none"><rect width="1000" height="500" x="0" y="0" fill="url(&quot;#SvgjsLinearGradient2115&quot;)"></rect><g mask="url(&quot;#SvgjsMask2116&quot;)"><path d="M161.5 263.5L178.5 280.5L195.5 280.5L212.5 280.5M59.5 263.5L76.5 280.5L93.5 280.5L110.5 280.5M246.5 263.5L263.5 246.5L280.5 246.5L297.5 246.5L314.5 246.5L331.5 246.5L348.5 263.5M144.5 263.5L161.5 280.5L178.5 297.5L195.5 297.5L212.5 297.5L229.5 280.5L246.5 280.5M42.5 263.5L59.5 246.5L76.5 246.5L93.5 246.5M-8.5 246.5L8.5 246.5L25.5 246.5L42.5 263.5L59.5 263.5L76.5 263.5L93.5 263.5L110.5 263.5L127.5 263.5L144.5 263.5L161.5 263.5L178.5 263.5L195.5 263.5L212.5 263.5L229.5 263.5L246.5 263.5L263.5 263.5L280.5 263.5L297.5 263.5L314.5 263.5" stroke="rgba(75, 225, 121, 1)" stroke-width="2.83"></path><path d="M310.25 263.5 a4.25 4.25 0 1 0 8.5 0 a4.25 4.25 0 1 0 -8.5 0zM208.25 280.5 a4.25 4.25 0 1 0 8.5 0 a4.25 4.25 0 1 0 -8.5 0zM106.25 280.5 a4.25 4.25 0 1 0 8.5 0 a4.25 4.25 0 1 0 -8.5 0zM344.25 263.5 a4.25 4.25 0 1 0 8.5 0 a4.25 4.25 0 1 0 -8.5 0zM242.25 280.5 a4.25 4.25 0 1 0 8.5 0 a4.25 4.25 0 1 0 -8.5 0zM89.25 246.5 a4.25 4.25 0 1 0 8.5 0 a4.25 4.25 0 1 0 -8.5 0z" fill="rgba(75, 225, 121, 1)"></path><path d="M297.5 331.5L314.5 331.5L331.5 331.5L348.5 331.5L365.5 331.5L382.5 331.5L399.5 331.5L416.5 331.5L433.5 331.5L450.5 331.5M144.5 314.5L161.5 331.5L178.5 331.5L195.5 348.5M127.5 331.5L144.5 331.5M93.5 331.5L110.5 314.5L127.5 314.5L144.5 297.5L161.5 297.5M246.5 314.5L263.5 331.5M212.5 314.5L229.5 331.5L246.5 331.5M-8.5 263.5L8.5 263.5L25.5 263.5L42.5 280.5L59.5 297.5L76.5 314.5L93.5 331.5L110.5 331.5L127.5 331.5L144.5 314.5L161.5 314.5L178.5 314.5L195.5 314.5L212.5 314.5L229.5 314.5L246.5 314.5L263.5 314.5L280.5 331.5L297.5 331.5L314.5 314.5L331.5 314.5L348.5 314.5L365.5 314.5L382.5 314.5L399.5 314.5L416.5 314.5L433.5 314.5" stroke="#dd1133" stroke-width="2.83"></path><path d="M429.25 314.5 a4.25 4.25 0 1 0 8.5 0 a4.25 4.25 0 1 0 -8.5 0zM446.25 331.5 a4.25 4.25 0 1 0 8.5 0 a4.25 4.25 0 1 0 -8.5 0zM191.25 348.5 a4.25 4.25 0 1 0 8.5 0 a4.25 4.25 0 1 0 -8.5 0zM140.25 331.5 a4.25 4.25 0 1 0 8.5 0 a4.25 4.25 0 1 0 -8.5 0zM157.25 297.5 a4.25 4.25 0 1 0 8.5 0 a4.25 4.25 0 1 0 -8.5 0zM259.25 331.5 a4.25 4.25 0 1 0 8.5 0 a4.25 4.25 0 1 0 -8.5 0zM242.25 331.5 a4.25 4.25 0 1 0 8.5 0 a4.25 4.25 0 1 0 -8.5 0z" fill="#dd1133"></path><path d="M8.5 229.5L25.5 229.5L42.5 229.5L59.5 229.5L76.5 229.5M-8.5 229.5L8.5 229.5L25.5 212.5" stroke="#3a7cc3" stroke-width="2.83"></path><path d="M21.25 212.5 a4.25 4.25 0 1 0 8.5 0 a4.25 4.25 0 1 0 -8.5 0zM72.25 229.5 a4.25 4.25 0 1 0 8.5 0 a4.25 4.25 0 1 0 -8.5 0z" fill="#3a7cc3"></path><path d="M756.5 314.5L773.5 331.5L790.5 331.5L807.5 331.5M212.5 365.5L229.5 365.5L246.5 365.5L263.5 365.5L280.5 365.5L297.5 365.5L314.5 365.5M586.5 365.5L603.5 382.5L620.5 382.5L637.5 382.5M790.5 314.5L807.5 297.5L824.5 280.5M467.5 365.5L484.5 382.5L501.5 382.5M637.5 365.5L654.5 348.5L671.5 331.5L688.5 331.5L705.5 314.5M654.5 365.5L671.5 365.5L688.5 365.5L705.5 365.5L722.5 365.5L739.5 348.5L756.5 348.5L773.5 348.5M110.5 348.5L127.5 365.5L144.5 365.5M399.5 365.5L416.5 382.5L433.5 382.5L450.5 382.5L467.5 382.5M739.5 314.5L756.5 297.5M620.5 365.5L637.5 348.5L654.5 331.5L671.5 314.5L688.5 314.5M484.5 365.5L501.5 348.5M-8.5 280.5L8.5 280.5L25.5 280.5L42.5 297.5L59.5 314.5L76.5 331.5L93.5 348.5L110.5 348.5L127.5 348.5L144.5 348.5L161.5 365.5L178.5 365.5L195.5 365.5L212.5 365.5L229.5 348.5L246.5 348.5L263.5 348.5L280.5 348.5L297.5 348.5L314.5 348.5L331.5 348.5L348.5 365.5L365.5 365.5L382.5 365.5L399.5 365.5L416.5 365.5L433.5 365.5L450.5 365.5L467.5 365.5L484.5 365.5L501.5 365.5L518.5 365.5L535.5 365.5L552.5 365.5L569.5 365.5L586.5 365.5L603.5 365.5L620.5 365.5L637.5 365.5L654.5 365.5L671.5 348.5L688.5 348.5L705.5 331.5L722.5 331.5L739.5 314.5L756.5 314.5L773.5 314.5L790.5 314.5L807.5 314.5" stroke="#3a7cc3" stroke-width="2.83"></path><path d="M803.25 314.5 a4.25 4.25 0 1 0 8.5 0 a4.25 4.25 0 1 0 -8.5 0zM803.25 331.5 a4.25 4.25 0 1 0 8.5 0 a4.25 4.25 0 1 0 -8.5 0zM310.25 365.5 a4.25 4.25 0 1 0 8.5 0 a4.25 4.25 0 1 0 -8.5 0zM633.25 382.5 a4.25 4.25 0 1 0 8.5 0 a4.25 4.25 0 1 0 -8.5 0zM820.25 280.5 a4.25 4.25 0 1 0 8.5 0 a4.25 4.25 0 1 0 -8.5 0zM497.25 382.5 a4.25 4.25 0 1 0 8.5 0 a4.25 4.25 0 1 0 -8.5 0zM701.25 314.5 a4.25 4.25 0 1 0 8.5 0 a4.25 4.25 0 1 0 -8.5 0zM769.25 348.5 a4.25 4.25 0 1 0 8.5 0 a4.25 4.25 0 1 0 -8.5 0zM140.25 365.5 a4.25 4.25 0 1 0 8.5 0 a4.25 4.25 0 1 0 -8.5 0zM463.25 382.5 a4.25 4.25 0 1 0 8.5 0 a4.25 4.25 0 1 0 -8.5 0zM752.25 297.5 a4.25 4.25 0 1 0 8.5 0 a4.25 4.25 0 1 0 -8.5 0zM684.25 314.5 a4.25 4.25 0 1 0 8.5 0 a4.25 4.25 0 1 0 -8.5 0zM497.25 348.5 a4.25 4.25 0 1 0 8.5 0 a4.25 4.25 0 1 0 -8.5 0z" fill="#3a7cc3"></path><path d="M93.5 195.5L110.5 212.5M76.5 195.5L93.5 212.5M42.5 195.5L59.5 212.5L76.5 212.5M-8.5 212.5L8.5 212.5L25.5 195.5L42.5 195.5L59.5 195.5L76.5 195.5L93.5 195.5L110.5 195.5" stroke="#dd1133" stroke-width="2.83"></path><path d="M106.25 195.5 a4.25 4.25 0 1 0 8.5 0 a4.25 4.25 0 1 0 -8.5 0zM106.25 212.5 a4.25 4.25 0 1 0 8.5 0 a4.25 4.25 0 1 0 -8.5 0zM89.25 212.5 a4.25 4.25 0 1 0 8.5 0 a4.25 4.25 0 1 0 -8.5 0zM72.25 212.5 a4.25 4.25 0 1 0 8.5 0 a4.25 4.25 0 1 0 -8.5 0z" fill="#dd1133"></path><path d="M-8.5 297.5L8.5 297.5L25.5 297.5L42.5 314.5L59.5 331.5L76.5 348.5L93.5 365.5" stroke="#3a7cc3" stroke-width="2.83"></path><path d="M89.25 365.5 a4.25 4.25 0 1 0 8.5 0 a4.25 4.25 0 1 0 -8.5 0z" fill="#3a7cc3"></path><path d="M433.5 229.5L450.5 246.5L467.5 246.5L484.5 246.5L501.5 246.5L518.5 246.5L535.5 263.5L552.5 263.5L569.5 263.5M195.5 195.5L212.5 178.5L229.5 161.5L246.5 161.5L263.5 161.5L280.5 161.5L297.5 161.5L314.5 178.5L331.5 178.5L348.5 178.5L365.5 178.5L382.5 178.5M212.5 195.5L229.5 195.5L246.5 195.5L263.5 195.5L280.5 195.5M161.5 195.5L178.5 212.5L195.5 212.5L212.5 212.5L229.5 229.5L246.5 246.5M110.5 178.5L127.5 178.5L144.5 178.5L161.5 178.5L178.5 178.5L195.5 178.5M127.5 195.5L144.5 212.5M314.5 229.5L331.5 212.5L348.5 212.5L365.5 212.5M280.5 229.5L297.5 212.5L314.5 212.5L331.5 195.5L348.5 195.5M-8.5 195.5L8.5 195.5L25.5 178.5L42.5 178.5L59.5 178.5L76.5 178.5L93.5 178.5L110.5 178.5L127.5 195.5L144.5 195.5L161.5 195.5L178.5 195.5L195.5 195.5L212.5 195.5L229.5 212.5L246.5 229.5L263.5 229.5L280.5 229.5L297.5 229.5L314.5 229.5L331.5 229.5L348.5 229.5L365.5 229.5L382.5 229.5L399.5 229.5L416.5 229.5L433.5 229.5L450.5 229.5L467.5 229.5L484.5 229.5L501.5 229.5L518.5 229.5" stroke="rgba(75, 225, 121, 1)" stroke-width="2.83"></path><path d="M514.25 229.5 a4.25 4.25 0 1 0 8.5 0 a4.25 4.25 0 1 0 -8.5 0zM565.25 263.5 a4.25 4.25 0 1 0 8.5 0 a4.25 4.25 0 1 0 -8.5 0zM378.25 178.5 a4.25 4.25 0 1 0 8.5 0 a4.25 4.25 0 1 0 -8.5 0zM276.25 195.5 a4.25 4.25 0 1 0 8.5 0 a4.25 4.25 0 1 0 -8.5 0zM242.25 246.5 a4.25 4.25 0 1 0 8.5 0 a4.25 4.25 0 1 0 -8.5 0zM191.25 178.5 a4.25 4.25 0 1 0 8.5 0 a4.25 4.25 0 1 0 -8.5 0zM140.25 212.5 a4.25 4.25 0 1 0 8.5 0 a4.25 4.25 0 1 0 -8.5 0zM361.25 212.5 a4.25 4.25 0 1 0 8.5 0 a4.25 4.25 0 1 0 -8.5 0zM344.25 195.5 a4.25 4.25 0 1 0 8.5 0 a4.25 4.25 0 1 0 -8.5 0z" fill="rgba(75, 225, 121, 1)"></path><path d="M-8.5 314.5L8.5 314.5L25.5 314.5L42.5 331.5" stroke="#3a7cc3" stroke-width="2.83"></path><path d="M38.25 331.5 a4.25 4.25 0 1 0 8.5 0 a4.25 4.25 0 1 0 -8.5 0z" fill="#3a7cc3"></path><path d="M195.5 144.5L212.5 127.5L229.5 127.5L246.5 127.5L263.5 127.5L280.5 127.5L297.5 127.5L314.5 127.5L331.5 127.5L348.5 127.5L365.5 127.5L382.5 110.5M450.5 127.5L467.5 110.5L484.5 110.5M161.5 144.5L178.5 161.5L195.5 161.5L212.5 161.5M722.5 93.5L739.5 110.5L756.5 110.5L773.5 110.5M110.5 161.5L127.5 161.5L144.5 161.5L161.5 161.5M348.5 144.5L365.5 161.5L382.5 161.5M535.5 110.5L552.5 93.5L569.5 76.5M671.5 93.5L688.5 110.5M518.5 110.5L535.5 127.5L552.5 127.5L569.5 127.5L586.5 127.5L603.5 127.5L620.5 127.5L637.5 127.5L654.5 110.5L671.5 110.5M314.5 144.5L331.5 161.5L348.5 161.5M586.5 93.5L603.5 110.5L620.5 110.5L637.5 110.5M-8.5 178.5L8.5 178.5L25.5 161.5L42.5 161.5L59.5 161.5L76.5 161.5L93.5 161.5L110.5 161.5L127.5 144.5L144.5 144.5L161.5 144.5L178.5 144.5L195.5 144.5L212.5 144.5L229.5 144.5L246.5 144.5L263.5 144.5L280.5 144.5L297.5 144.5L314.5 144.5L331.5 144.5L348.5 144.5L365.5 144.5L382.5 144.5L399.5 144.5L416.5 127.5L433.5 127.5L450.5 127.5L467.5 127.5L484.5 127.5L501.5 110.5L518.5 110.5L535.5 110.5L552.5 110.5L569.5 93.5L586.5 93.5L603.5 93.5L620.5 93.5L637.5 93.5L654.5 93.5L671.5 93.5L688.5 93.5L705.5 93.5L722.5 93.5L739.5 93.5" stroke="rgba(75, 225, 121, 1)" stroke-width="2.83"></path><path d="M735.25 93.5 a4.25 4.25 0 1 0 8.5 0 a4.25 4.25 0 1 0 -8.5 0zM378.25 110.5 a4.25 4.25 0 1 0 8.5 0 a4.25 4.25 0 1 0 -8.5 0zM480.25 110.5 a4.25 4.25 0 1 0 8.5 0 a4.25 4.25 0 1 0 -8.5 0zM208.25 161.5 a4.25 4.25 0 1 0 8.5 0 a4.25 4.25 0 1 0 -8.5 0zM769.25 110.5 a4.25 4.25 0 1 0 8.5 0 a4.25 4.25 0 1 0 -8.5 0zM157.25 161.5 a4.25 4.25 0 1 0 8.5 0 a4.25 4.25 0 1 0 -8.5 0zM378.25 161.5 a4.25 4.25 0 1 0 8.5 0 a4.25 4.25 0 1 0 -8.5 0zM565.25 76.5 a4.25 4.25 0 1 0 8.5 0 a4.25 4.25 0 1 0 -8.5 0zM684.25 110.5 a4.25 4.25 0 1 0 8.5 0 a4.25 4.25 0 1 0 -8.5 0zM667.25 110.5 a4.25 4.25 0 1 0 8.5 0 a4.25 4.25 0 1 0 -8.5 0zM344.25 161.5 a4.25 4.25 0 1 0 8.5 0 a4.25 4.25 0 1 0 -8.5 0zM633.25 110.5 a4.25 4.25 0 1 0 8.5 0 a4.25 4.25 0 1 0 -8.5 0z" fill="rgba(75, 225, 121, 1)"></path><path d="M-8.5 331.5L8.5 331.5L25.5 331.5L42.5 348.5L59.5 348.5L76.5 365.5L93.5 382.5L110.5 382.5L127.5 382.5L144.5 382.5L161.5 382.5L178.5 382.5L195.5 382.5" stroke="rgba(75, 225, 121, 1)" stroke-width="2.83"></path><path d="M191.25 382.5 a4.25 4.25 0 1 0 8.5 0 a4.25 4.25 0 1 0 -8.5 0z" fill="rgba(75, 225, 121, 1)"></path><path d="M-8.5 161.5L8.5 161.5L25.5 144.5L42.5 144.5L59.5 144.5L76.5 144.5L93.5 144.5L110.5 144.5L127.5 127.5L144.5 127.5L161.5 127.5L178.5 127.5L195.5 110.5L212.5 110.5L229.5 110.5L246.5 110.5L263.5 110.5L280.5 110.5L297.5 110.5L314.5 110.5L331.5 110.5L348.5 110.5L365.5 110.5" stroke="rgba(75, 225, 121, 1)" stroke-width="2.83"></path><path d="M361.25 110.5 a4.25 4.25 0 1 0 8.5 0 a4.25 4.25 0 1 0 -8.5 0z" fill="rgba(75, 225, 121, 1)"></path><path d="M399.5 399.5L416.5 416.5L433.5 416.5L450.5 416.5M637.5 416.5L654.5 433.5L671.5 433.5L688.5 433.5L705.5 433.5L722.5 433.5L739.5 433.5L756.5 433.5L773.5 433.5M229.5 399.5L246.5 382.5L263.5 382.5L280.5 382.5L297.5 382.5M144.5 399.5L161.5 416.5L178.5 416.5L195.5 416.5M263.5 399.5L280.5 416.5L297.5 416.5M365.5 399.5L382.5 416.5M688.5 416.5L705.5 399.5L722.5 399.5M212.5 399.5L229.5 382.5M348.5 399.5L365.5 382.5L382.5 382.5L399.5 382.5M739.5 416.5L756.5 399.5L773.5 399.5L790.5 416.5L807.5 416.5M535.5 399.5L552.5 416.5L569.5 416.5L586.5 416.5L603.5 416.5L620.5 416.5L637.5 433.5M-8.5 348.5L8.5 348.5L25.5 348.5L42.5 365.5L59.5 365.5L76.5 382.5L93.5 399.5L110.5 399.5L127.5 399.5L144.5 399.5L161.5 399.5L178.5 399.5L195.5 399.5L212.5 399.5L229.5 399.5L246.5 399.5L263.5 399.5L280.5 399.5L297.5 399.5L314.5 399.5L331.5 399.5L348.5 399.5L365.5 399.5L382.5 399.5L399.5 399.5L416.5 399.5L433.5 399.5L450.5 399.5L467.5 399.5L484.5 399.5L501.5 399.5L518.5 399.5L535.5 399.5L552.5 399.5L569.5 399.5L586.5 399.5L603.5 399.5L620.5 399.5L637.5 416.5L654.5 416.5L671.5 416.5L688.5 416.5L705.5 416.5L722.5 416.5L739.5 416.5L756.5 416.5" stroke="#3a7cc3" stroke-width="2.83"></path><path d="M752.25 416.5 a4.25 4.25 0 1 0 8.5 0 a4.25 4.25 0 1 0 -8.5 0zM446.25 416.5 a4.25 4.25 0 1 0 8.5 0 a4.25 4.25 0 1 0 -8.5 0zM769.25 433.5 a4.25 4.25 0 1 0 8.5 0 a4.25 4.25 0 1 0 -8.5 0zM293.25 382.5 a4.25 4.25 0 1 0 8.5 0 a4.25 4.25 0 1 0 -8.5 0zM191.25 416.5 a4.25 4.25 0 1 0 8.5 0 a4.25 4.25 0 1 0 -8.5 0zM293.25 416.5 a4.25 4.25 0 1 0 8.5 0 a4.25 4.25 0 1 0 -8.5 0zM378.25 416.5 a4.25 4.25 0 1 0 8.5 0 a4.25 4.25 0 1 0 -8.5 0zM718.25 399.5 a4.25 4.25 0 1 0 8.5 0 a4.25 4.25 0 1 0 -8.5 0zM225.25 382.5 a4.25 4.25 0 1 0 8.5 0 a4.25 4.25 0 1 0 -8.5 0zM395.25 382.5 a4.25 4.25 0 1 0 8.5 0 a4.25 4.25 0 1 0 -8.5 0zM803.25 416.5 a4.25 4.25 0 1 0 8.5 0 a4.25 4.25 0 1 0 -8.5 0zM633.25 433.5 a4.25 4.25 0 1 0 8.5 0 a4.25 4.25 0 1 0 -8.5 0z" fill="#3a7cc3"></path><path d="M484.5 76.5L501.5 93.5L518.5 93.5L535.5 93.5M671.5 76.5L688.5 76.5M450.5 76.5L467.5 93.5L484.5 93.5M637.5 76.5L654.5 59.5L671.5 59.5L688.5 42.5M569.5 59.5L586.5 59.5L603.5 59.5L620.5 59.5L637.5 59.5L654.5 42.5L671.5 42.5M59.5 127.5L76.5 110.5L93.5 110.5L110.5 110.5L127.5 93.5L144.5 93.5L161.5 93.5L178.5 93.5L195.5 76.5L212.5 76.5L229.5 76.5L246.5 76.5L263.5 76.5M739.5 42.5L756.5 59.5L773.5 59.5M348.5 93.5L365.5 76.5L382.5 76.5M399.5 93.5L416.5 110.5L433.5 110.5M331.5 93.5L348.5 76.5L365.5 59.5L382.5 59.5L399.5 59.5M535.5 59.5L552.5 76.5M-8.5 144.5L8.5 144.5L25.5 127.5L42.5 127.5L59.5 127.5L76.5 127.5L93.5 127.5L110.5 127.5L127.5 110.5L144.5 110.5L161.5 110.5L178.5 110.5L195.5 93.5L212.5 93.5L229.5 93.5L246.5 93.5L263.5 93.5L280.5 93.5L297.5 93.5L314.5 93.5L331.5 93.5L348.5 93.5L365.5 93.5L382.5 93.5L399.5 93.5L416.5 93.5L433.5 76.5L450.5 76.5L467.5 76.5L484.5 76.5L501.5 76.5L518.5 76.5L535.5 59.5L552.5 59.5L569.5 59.5L586.5 76.5L603.5 76.5L620.5 76.5L637.5 76.5L654.5 76.5L671.5 76.5L688.5 59.5L705.5 59.5L722.5 59.5L739.5 42.5L756.5 42.5L773.5 42.5" stroke="#3a7cc3" stroke-width="2.83"></path><path d="M769.25 42.5 a4.25 4.25 0 1 0 8.5 0 a4.25 4.25 0 1 0 -8.5 0zM531.25 93.5 a4.25 4.25 0 1 0 8.5 0 a4.25 4.25 0 1 0 -8.5 0zM684.25 76.5 a4.25 4.25 0 1 0 8.5 0 a4.25 4.25 0 1 0 -8.5 0zM480.25 93.5 a4.25 4.25 0 1 0 8.5 0 a4.25 4.25 0 1 0 -8.5 0zM684.25 42.5 a4.25 4.25 0 1 0 8.5 0 a4.25 4.25 0 1 0 -8.5 0zM667.25 42.5 a4.25 4.25 0 1 0 8.5 0 a4.25 4.25 0 1 0 -8.5 0zM259.25 76.5 a4.25 4.25 0 1 0 8.5 0 a4.25 4.25 0 1 0 -8.5 0zM769.25 59.5 a4.25 4.25 0 1 0 8.5 0 a4.25 4.25 0 1 0 -8.5 0zM378.25 76.5 a4.25 4.25 0 1 0 8.5 0 a4.25 4.25 0 1 0 -8.5 0zM429.25 110.5 a4.25 4.25 0 1 0 8.5 0 a4.25 4.25 0 1 0 -8.5 0zM395.25 59.5 a4.25 4.25 0 1 0 8.5 0 a4.25 4.25 0 1 0 -8.5 0zM548.25 76.5 a4.25 4.25 0 1 0 8.5 0 a4.25 4.25 0 1 0 -8.5 0z" fill="#3a7cc3"></path><path d="M8.5 365.5L25.5 382.5L42.5 399.5M348.5 450.5L365.5 467.5M280.5 467.5L297.5 450.5L314.5 450.5L331.5 450.5L348.5 433.5M93.5 416.5L110.5 433.5L127.5 433.5L144.5 450.5L161.5 467.5M161.5 450.5L178.5 450.5L195.5 450.5L212.5 450.5L229.5 450.5L246.5 450.5L263.5 450.5M-8.5 365.5L8.5 365.5L25.5 365.5L42.5 382.5L59.5 382.5L76.5 399.5L93.5 416.5L110.5 416.5L127.5 416.5L144.5 433.5L161.5 450.5L178.5 467.5L195.5 467.5L212.5 467.5L229.5 467.5L246.5 467.5L263.5 467.5L280.5 467.5L297.5 467.5L314.5 467.5L331.5 467.5L348.5 450.5L365.5 450.5" stroke="rgba(75, 225, 121, 1)" stroke-width="2.83"></path><path d="M361.25 450.5 a4.25 4.25 0 1 0 8.5 0 a4.25 4.25 0 1 0 -8.5 0zM38.25 399.5 a4.25 4.25 0 1 0 8.5 0 a4.25 4.25 0 1 0 -8.5 0zM361.25 467.5 a4.25 4.25 0 1 0 8.5 0 a4.25 4.25 0 1 0 -8.5 0zM344.25 433.5 a4.25 4.25 0 1 0 8.5 0 a4.25 4.25 0 1 0 -8.5 0zM157.25 467.5 a4.25 4.25 0 1 0 8.5 0 a4.25 4.25 0 1 0 -8.5 0zM259.25 450.5 a4.25 4.25 0 1 0 8.5 0 a4.25 4.25 0 1 0 -8.5 0z" fill="rgba(75, 225, 121, 1)"></path><path d="M25.5 110.5L42.5 93.5L59.5 93.5L76.5 93.5M-8.5 127.5L8.5 127.5L25.5 110.5L42.5 110.5" stroke="#3a7cc3" stroke-width="2.83"></path><path d="M38.25 110.5 a4.25 4.25 0 1 0 8.5 0 a4.25 4.25 0 1 0 -8.5 0zM72.25 93.5 a4.25 4.25 0 1 0 8.5 0 a4.25 4.25 0 1 0 -8.5 0z" fill="#3a7cc3"></path></g></g><defs><mask id="SvgjsMask2114"><rect width="1000" height="500" fill="#ffffff"></rect></mask><linearGradient x1="12.5%" y1="-25%" x2="87.5%" y2="125%" gradientUnits="userSpaceOnUse" id="SvgjsLinearGradient2115"><stop stop-color="#0e2a47" offset="0"></stop><stop stop-color="rgba(0, 118, 158, 1)" offset="1"></stop></linearGradient><mask id="SvgjsMask2116"><rect width="1000" height="500" fill="white"></rect><path d="M312.37 263.5 a2.13 2.13 0 1 0 4.26 0 a2.13 2.13 0 1 0 -4.26 0zM210.37 280.5 a2.13 2.13 0 1 0 4.26 0 a2.13 2.13 0 1 0 -4.26 0zM108.37 280.5 a2.13 2.13 0 1 0 4.26 0 a2.13 2.13 0 1 0 -4.26 0zM346.37 263.5 a2.13 2.13 0 1 0 4.26 0 a2.13 2.13 0 1 0 -4.26 0zM244.37 280.5 a2.13 2.13 0 1 0 4.26 0 a2.13 2.13 0 1 0 -4.26 0zM91.37 246.5 a2.13 2.13 0 1 0 4.26 0 a2.13 2.13 0 1 0 -4.26 0z" fill="black"></path><path d="M431.37 314.5 a2.13 2.13 0 1 0 4.26 0 a2.13 2.13 0 1 0 -4.26 0zM448.37 331.5 a2.13 2.13 0 1 0 4.26 0 a2.13 2.13 0 1 0 -4.26 0zM193.37 348.5 a2.13 2.13 0 1 0 4.26 0 a2.13 2.13 0 1 0 -4.26 0zM142.37 331.5 a2.13 2.13 0 1 0 4.26 0 a2.13 2.13 0 1 0 -4.26 0zM159.37 297.5 a2.13 2.13 0 1 0 4.26 0 a2.13 2.13 0 1 0 -4.26 0zM261.37 331.5 a2.13 2.13 0 1 0 4.26 0 a2.13 2.13 0 1 0 -4.26 0zM244.37 331.5 a2.13 2.13 0 1 0 4.26 0 a2.13 2.13 0 1 0 -4.26 0z" fill="black"></path><path d="M23.37 212.5 a2.13 2.13 0 1 0 4.26 0 a2.13 2.13 0 1 0 -4.26 0zM74.37 229.5 a2.13 2.13 0 1 0 4.26 0 a2.13 2.13 0 1 0 -4.26 0z" fill="black"></path><path d="M805.37 314.5 a2.13 2.13 0 1 0 4.26 0 a2.13 2.13 0 1 0 -4.26 0zM805.37 331.5 a2.13 2.13 0 1 0 4.26 0 a2.13 2.13 0 1 0 -4.26 0zM312.37 365.5 a2.13 2.13 0 1 0 4.26 0 a2.13 2.13 0 1 0 -4.26 0zM635.37 382.5 a2.13 2.13 0 1 0 4.26 0 a2.13 2.13 0 1 0 -4.26 0zM822.37 280.5 a2.13 2.13 0 1 0 4.26 0 a2.13 2.13 0 1 0 -4.26 0zM499.37 382.5 a2.13 2.13 0 1 0 4.26 0 a2.13 2.13 0 1 0 -4.26 0zM703.37 314.5 a2.13 2.13 0 1 0 4.26 0 a2.13 2.13 0 1 0 -4.26 0zM771.37 348.5 a2.13 2.13 0 1 0 4.26 0 a2.13 2.13 0 1 0 -4.26 0zM142.37 365.5 a2.13 2.13 0 1 0 4.26 0 a2.13 2.13 0 1 0 -4.26 0zM465.37 382.5 a2.13 2.13 0 1 0 4.26 0 a2.13 2.13 0 1 0 -4.26 0zM754.37 297.5 a2.13 2.13 0 1 0 4.26 0 a2.13 2.13 0 1 0 -4.26 0zM686.37 314.5 a2.13 2.13 0 1 0 4.26 0 a2.13 2.13 0 1 0 -4.26 0zM499.37 348.5 a2.13 2.13 0 1 0 4.26 0 a2.13 2.13 0 1 0 -4.26 0z" fill="black"></path><path d="M108.37 195.5 a2.13 2.13 0 1 0 4.26 0 a2.13 2.13 0 1 0 -4.26 0zM108.37 212.5 a2.13 2.13 0 1 0 4.26 0 a2.13 2.13 0 1 0 -4.26 0zM91.37 212.5 a2.13 2.13 0 1 0 4.26 0 a2.13 2.13 0 1 0 -4.26 0zM74.37 212.5 a2.13 2.13 0 1 0 4.26 0 a2.13 2.13 0 1 0 -4.26 0z" fill="black"></path><path d="M91.37 365.5 a2.13 2.13 0 1 0 4.26 0 a2.13 2.13 0 1 0 -4.26 0z" fill="black"></path><path d="M516.37 229.5 a2.13 2.13 0 1 0 4.26 0 a2.13 2.13 0 1 0 -4.26 0zM567.37 263.5 a2.13 2.13 0 1 0 4.26 0 a2.13 2.13 0 1 0 -4.26 0zM380.37 178.5 a2.13 2.13 0 1 0 4.26 0 a2.13 2.13 0 1 0 -4.26 0zM278.37 195.5 a2.13 2.13 0 1 0 4.26 0 a2.13 2.13 0 1 0 -4.26 0zM244.37 246.5 a2.13 2.13 0 1 0 4.26 0 a2.13 2.13 0 1 0 -4.26 0zM193.37 178.5 a2.13 2.13 0 1 0 4.26 0 a2.13 2.13 0 1 0 -4.26 0zM142.37 212.5 a2.13 2.13 0 1 0 4.26 0 a2.13 2.13 0 1 0 -4.26 0zM363.37 212.5 a2.13 2.13 0 1 0 4.26 0 a2.13 2.13 0 1 0 -4.26 0zM346.37 195.5 a2.13 2.13 0 1 0 4.26 0 a2.13 2.13 0 1 0 -4.26 0z" fill="black"></path><path d="M40.37 331.5 a2.13 2.13 0 1 0 4.26 0 a2.13 2.13 0 1 0 -4.26 0z" fill="black"></path><path d="M737.37 93.5 a2.13 2.13 0 1 0 4.26 0 a2.13 2.13 0 1 0 -4.26 0zM380.37 110.5 a2.13 2.13 0 1 0 4.26 0 a2.13 2.13 0 1 0 -4.26 0zM482.37 110.5 a2.13 2.13 0 1 0 4.26 0 a2.13 2.13 0 1 0 -4.26 0zM210.37 161.5 a2.13 2.13 0 1 0 4.26 0 a2.13 2.13 0 1 0 -4.26 0zM771.37 110.5 a2.13 2.13 0 1 0 4.26 0 a2.13 2.13 0 1 0 -4.26 0zM159.37 161.5 a2.13 2.13 0 1 0 4.26 0 a2.13 2.13 0 1 0 -4.26 0zM380.37 161.5 a2.13 2.13 0 1 0 4.26 0 a2.13 2.13 0 1 0 -4.26 0zM567.37 76.5 a2.13 2.13 0 1 0 4.26 0 a2.13 2.13 0 1 0 -4.26 0zM686.37 110.5 a2.13 2.13 0 1 0 4.26 0 a2.13 2.13 0 1 0 -4.26 0zM669.37 110.5 a2.13 2.13 0 1 0 4.26 0 a2.13 2.13 0 1 0 -4.26 0zM346.37 161.5 a2.13 2.13 0 1 0 4.26 0 a2.13 2.13 0 1 0 -4.26 0zM635.37 110.5 a2.13 2.13 0 1 0 4.26 0 a2.13 2.13 0 1 0 -4.26 0z" fill="black"></path><path d="M193.37 382.5 a2.13 2.13 0 1 0 4.26 0 a2.13 2.13 0 1 0 -4.26 0z" fill="black"></path><path d="M363.37 110.5 a2.13 2.13 0 1 0 4.26 0 a2.13 2.13 0 1 0 -4.26 0z" fill="black"></path><path d="M754.37 416.5 a2.13 2.13 0 1 0 4.26 0 a2.13 2.13 0 1 0 -4.26 0zM448.37 416.5 a2.13 2.13 0 1 0 4.26 0 a2.13 2.13 0 1 0 -4.26 0zM771.37 433.5 a2.13 2.13 0 1 0 4.26 0 a2.13 2.13 0 1 0 -4.26 0zM295.37 382.5 a2.13 2.13 0 1 0 4.26 0 a2.13 2.13 0 1 0 -4.26 0zM193.37 416.5 a2.13 2.13 0 1 0 4.26 0 a2.13 2.13 0 1 0 -4.26 0zM295.37 416.5 a2.13 2.13 0 1 0 4.26 0 a2.13 2.13 0 1 0 -4.26 0zM380.37 416.5 a2.13 2.13 0 1 0 4.26 0 a2.13 2.13 0 1 0 -4.26 0zM720.37 399.5 a2.13 2.13 0 1 0 4.26 0 a2.13 2.13 0 1 0 -4.26 0zM227.37 382.5 a2.13 2.13 0 1 0 4.26 0 a2.13 2.13 0 1 0 -4.26 0zM397.37 382.5 a2.13 2.13 0 1 0 4.26 0 a2.13 2.13 0 1 0 -4.26 0zM805.37 416.5 a2.13 2.13 0 1 0 4.26 0 a2.13 2.13 0 1 0 -4.26 0zM635.37 433.5 a2.13 2.13 0 1 0 4.26 0 a2.13 2.13 0 1 0 -4.26 0z" fill="black"></path><path d="M771.37 42.5 a2.13 2.13 0 1 0 4.26 0 a2.13 2.13 0 1 0 -4.26 0zM533.37 93.5 a2.13 2.13 0 1 0 4.26 0 a2.13 2.13 0 1 0 -4.26 0zM686.37 76.5 a2.13 2.13 0 1 0 4.26 0 a2.13 2.13 0 1 0 -4.26 0zM482.37 93.5 a2.13 2.13 0 1 0 4.26 0 a2.13 2.13 0 1 0 -4.26 0zM686.37 42.5 a2.13 2.13 0 1 0 4.26 0 a2.13 2.13 0 1 0 -4.26 0zM669.37 42.5 a2.13 2.13 0 1 0 4.26 0 a2.13 2.13 0 1 0 -4.26 0zM261.37 76.5 a2.13 2.13 0 1 0 4.26 0 a2.13 2.13 0 1 0 -4.26 0zM771.37 59.5 a2.13 2.13 0 1 0 4.26 0 a2.13 2.13 0 1 0 -4.26 0zM380.37 76.5 a2.13 2.13 0 1 0 4.26 0 a2.13 2.13 0 1 0 -4.26 0zM431.37 110.5 a2.13 2.13 0 1 0 4.26 0 a2.13 2.13 0 1 0 -4.26 0zM397.37 59.5 a2.13 2.13 0 1 0 4.26 0 a2.13 2.13 0 1 0 -4.26 0zM550.37 76.5 a2.13 2.13 0 1 0 4.26 0 a2.13 2.13 0 1 0 -4.26 0z" fill="black"></path><path d="M363.37 450.5 a2.13 2.13 0 1 0 4.26 0 a2.13 2.13 0 1 0 -4.26 0zM40.37 399.5 a2.13 2.13 0 1 0 4.26 0 a2.13 2.13 0 1 0 -4.26 0zM363.37 467.5 a2.13 2.13 0 1 0 4.26 0 a2.13 2.13 0 1 0 -4.26 0zM346.37 433.5 a2.13 2.13 0 1 0 4.26 0 a2.13 2.13 0 1 0 -4.26 0zM159.37 467.5 a2.13 2.13 0 1 0 4.26 0 a2.13 2.13 0 1 0 -4.26 0zM261.37 450.5 a2.13 2.13 0 1 0 4.26 0 a2.13 2.13 0 1 0 -4.26 0z" fill="black"></path><path d="M40.37 110.5 a2.13 2.13 0 1 0 4.26 0 a2.13 2.13 0 1 0 -4.26 0zM74.37 93.5 a2.13 2.13 0 1 0 4.26 0 a2.13 2.13 0 1 0 -4.26 0z" fill="black"></path></mask></defs></svg>